<?xml version="1.0" encoding="iso-8859-1"?>
<!-- Generator: Adobe Illustrator 28.2.0, SVG Export Plug-In . SVG Version: 6.00 Build 0)  -->
<svg version="1.1" id="Layer_1" xmlns="http://www.w3.org/2000/svg" xmlns:xlink="http://www.w3.org/1999/xlink" x="0px" y="0px"
	 viewBox="0 0 1080 1350" style="enable-background:new 0 0 1080 1350;" xml:space="preserve">
<g>
	<g>
		<path style="fill:#F0F2F7;" d="M567.294,215.503h-0.031l-40.984-0.241c-2.749-0.016-5.13-1.022-7.079-2.99
			c-1.949-1.969-2.931-4.302-2.917-6.933c0.016-2.747,1.026-5.127,2.997-7.071c1.956-1.931,4.328-2.909,7.048-2.909h0.069
			l40.985,0.239c0.028-0.002,0.407-0.016,2.496-0.318c1.391-0.196,2.89-0.709,4.464-1.528c1.146-0.834,2.323-2.031,3.499-3.559
			c1.101-1.434,1.673-4.054,1.698-7.792c0.019-3.63-0.527-6.233-1.619-7.738c-1.161-1.601-2.321-2.781-3.451-3.506
			c-1.415-0.817-2.892-1.356-4.347-1.574c-1.886-0.279-2.451-0.342-2.593-0.347l-40.976-0.241c-2.75-0.016-5.133-1.023-7.081-2.993
			c-1.952-1.969-2.933-4.302-2.917-6.934c0.018-2.631,1.026-4.952,2.997-6.895c1.172-1.156,2.506-1.979,3.966-2.447
			c0.655-0.209,1.346,0.152,1.552,0.8c0.21,0.65-0.149,1.343-0.8,1.552c-1.086,0.347-2.087,0.969-2.981,1.85
			c-1.508,1.489-2.25,3.175-2.261,5.157c-0.013,1.979,0.708,3.674,2.201,5.181c1.493,1.509,3.239,2.247,5.34,2.26l40.979,0.242
			c0.209,0,0.599,0.028,2.939,0.374c1.763,0.263,3.537,0.905,5.271,1.909c1.441,0.924,2.822,2.314,4.163,4.163
			c1.428,1.963,2.112,4.974,2.089,9.2c-0.028,4.352-0.75,7.388-2.21,9.281c-1.346,1.752-2.721,3.136-4.086,4.112
			c-0.047,0.032-0.095,0.061-0.145,0.089c-1.854,0.975-3.651,1.59-5.341,1.828c-2.406,0.346-2.724,0.331-2.864,0.343l-40.982-0.241
			c-2.122-0.023-3.852,0.706-5.363,2.197c-1.509,1.49-2.25,3.233-2.266,5.33c-0.009,1.979,0.711,3.676,2.204,5.184
			c1.492,1.506,3.238,2.245,5.337,2.258l40.982,0.241c0.273-0.004,1.542-0.079,5.134-0.48c2.765-0.308,5.845-1.401,9.151-3.248
			c5.007-2.517,8.84-6.077,11.44-10.601c2.617-4.55,3.962-10.001,4-16.204c0.035-6.084-1.245-11.494-3.81-16.075
			c-2.543-4.55-6.335-8.156-11.27-10.712c-3.315-1.788-6.391-2.864-9.159-3.206c-3.584-0.444-4.766-0.539-5.127-0.539l-10.503-0.063
			c-0.682-0.004-1.231-0.559-1.228-1.241c0.004-0.679,0.558-1.226,1.236-1.226h0.009l10.499,0.061
			c0.4,0.001,1.398,0.061,5.416,0.558c3.076,0.381,6.445,1.549,10.014,3.474c5.352,2.775,9.486,6.711,12.271,11.691
			c2.774,4.956,4.16,10.775,4.122,17.291c-0.039,6.633-1.495,12.494-4.327,17.417c-2.845,4.952-7.026,8.839-12.426,11.554
			c-3.547,1.981-6.943,3.174-10.038,3.52C568.768,215.446,567.718,215.503,567.294,215.503"/>
		<path style="fill:#F0F2F7;" d="M522.512,192.992h-0.006l-10.157-0.06c-0.397-0.002-1.396-0.061-5.417-0.556
			c-3.073-0.381-6.442-1.549-10.013-3.476c-5.35-2.772-9.486-6.709-12.271-11.69c-2.777-4.957-4.163-10.776-4.122-17.291
			c0.038-6.633,1.492-12.494,4.325-17.417c2.844-4.952,7.025-8.839,12.429-11.553c3.546-1.982,6.937-3.175,10.035-3.521
			c4.467-0.499,5.181-0.501,5.42-0.495l40.985,0.241c2.752,0.018,5.136,1.023,7.081,2.993c1.949,1.969,2.928,4.302,2.914,6.933
			c-0.015,2.743-1.025,5.122-2.997,7.07c-1.975,1.947-4.34,2.953-7.116,2.908l-40.982-0.241c-0.048,0.002-0.438,0.023-2.499,0.318
			c-1.388,0.197-2.89,0.711-4.464,1.528c-1.149,0.836-2.327,2.035-3.496,3.559c-1.107,1.438-1.679,4.06-1.698,7.792
			c-0.023,3.626,0.523,6.23,1.617,7.741c1.159,1.599,2.32,2.778,3.451,3.505c1.415,0.816,2.892,1.355,4.343,1.572
			c2.104,0.312,2.522,0.346,2.604,0.349l40.969,0.241c2.746,0.015,5.13,1.02,7.081,2.991c0.479,0.485,0.476,1.266-0.01,1.746
			c-0.488,0.479-1.269,0.474-1.747-0.01c-1.495-1.509-3.241-2.248-5.337-2.26l-40.986-0.241c-0.156-0.002-0.439-0.004-2.937-0.377
			c-1.762-0.261-3.534-0.902-5.27-1.906c-1.439-0.924-2.823-2.315-4.162-4.163c-1.434-1.971-2.114-4.982-2.089-9.201
			c0.025-4.344,0.747-7.381,2.209-9.28c1.342-1.749,2.717-3.133,4.086-4.114c0.045-0.032,0.093-0.063,0.145-0.089
			c1.854-0.972,3.651-1.587,5.341-1.828c2.407-0.343,2.673-0.345,2.861-0.342l40.988,0.239h0.055c2.073,0,3.809-0.718,5.305-2.194
			c1.512-1.492,2.251-3.235,2.263-5.33c0.013-1.979-0.708-3.674-2.201-5.184c-1.489-1.508-3.235-2.247-5.337-2.26l-40.982-0.241
			h-0.007c-0.317,0-1.404,0.064-5.127,0.48c-2.766,0.309-5.846,1.401-9.148,3.247c-5.011,2.52-8.845,6.077-11.443,10.602
			c-2.619,4.55-3.965,10.001-3.997,16.202c-0.038,6.086,1.242,11.493,3.806,16.075c2.546,4.552,6.34,8.156,11.273,10.713
			c3.315,1.788,6.392,2.864,9.157,3.206c3.588,0.442,4.771,0.537,5.128,0.539l10.159,0.06c0.683,0.004,1.231,0.559,1.228,1.241
			C523.745,192.444,523.192,192.992,522.512,192.992"/>
		<path style="fill:#F0F2F7;" d="M482.204,247.048v-10.705h2.956v10.411c0,3.033,1.436,4.72,4.306,4.72
			c3.292,0,5.445-2.108,5.445-5.521v-9.61h2.955v17.45h-2.955l0.085-3.541c-1.14,2.445-3.42,3.92-6.248,3.92
			C484.864,254.172,482.204,251.516,482.204,247.048"/>
		<path style="fill:#F0F2F7;" d="M488.749,254.502c-4.176,0-6.874-2.927-6.874-7.454v-11.035h3.614v10.741
			c0,2.912,1.337,4.391,3.976,4.391c3.156,0,5.117-1.991,5.117-5.194v-9.938h3.613v18.109h-3.622l0.061-2.591
			C493.311,253.411,491.19,254.502,488.749,254.502 M482.533,236.672v10.376c0,4.191,2.382,6.794,6.216,6.794
			c2.676,0,4.844-1.358,5.947-3.728l0.631,0.146l-0.076,3.203h2.286v-16.79h-2.295v9.28c0,3.555-2.269,5.852-5.776,5.852
			c-2.99,0-4.636-1.794-4.636-5.049v-10.083H482.533z"/>
		<path style="fill:#F0F2F7;" d="M504.119,236.343h2.955l-0.085,3.584c1.142-2.487,3.464-3.963,6.29-3.963
			c3.886,0,6.546,2.657,6.546,7.208v10.621h-2.958v-10.284c0-3.077-1.435-4.848-4.347-4.848c-3.251,0-5.446,2.064-5.446,5.522v9.61
			h-2.955V236.343z"/>
		<path style="fill:#F0F2F7;" d="M520.155,254.123h-3.616v-10.614c0-2.998-1.352-4.518-4.019-4.518c-3.155,0-5.115,1.99-5.115,5.192
			v9.94h-3.617v-18.11h3.625l-0.063,2.619c1.325-1.898,3.461-2.997,5.93-2.997c4.177,0,6.876,2.958,6.876,7.537V254.123z
			 M517.199,253.463h2.296v-10.291c0-4.244-2.382-6.878-6.216-6.878c-2.708,0-4.892,1.374-5.991,3.771l-0.629-0.146l0.077-3.245
			h-2.287v16.79h2.296v-9.28c0-3.555,2.267-5.851,5.775-5.851c3.016,0,4.679,1.839,4.679,5.176V253.463z"/>
		<path style="fill:#F0F2F7;" d="M525.949,236.342h2.914l-0.085,3.753c1.223-2.404,3.504-4.133,6.797-4.133
			c4.771,0,8.443,3.877,8.443,9.062c0,5.228-3.715,9.105-8.484,9.105c-3.125,0-5.533-1.686-6.671-3.962v12.562h-2.914V236.342z
			 M540.979,245.025c0-3.752-2.365-6.449-6.038-6.449c-3.715,0-6.206,2.698-6.206,6.449c0,3.794,2.49,6.534,6.206,6.534
			C538.614,251.559,540.979,248.819,540.979,245.025"/>
		<path style="fill:#F0F2F7;" d="M529.193,263.058h-3.574v-27.044h3.581l-0.067,2.848c1.477-2.092,3.722-3.228,6.442-3.228
			c5.001,0,8.773,4.038,8.773,9.391c0,5.378-3.79,9.435-8.816,9.435c-2.59,0-4.922-1.171-6.34-3.118V263.058z M526.279,262.4h2.252
			v-12.232l0.625-0.147c1.187,2.366,3.569,3.781,6.376,3.781c4.649,0,8.156-3.774,8.156-8.776c0-4.978-3.486-8.732-8.113-8.732
			c-2.898,0-5.207,1.403-6.503,3.952l-0.625-0.158l0.079-3.414h-2.247V262.4z M534.942,251.889c-3.849,0-6.537-2.823-6.537-6.864
			c0-3.991,2.688-6.779,6.537-6.779c3.749,0,6.366,2.788,6.366,6.779C541.308,249.066,538.69,251.889,534.942,251.889
			 M534.942,238.906c-3.46,0-5.876,2.515-5.876,6.119c0,3.654,2.416,6.204,5.876,6.204c3.414,0,5.706-2.493,5.706-6.204
			C540.648,241.364,538.356,238.906,534.942,238.906"/>
		<rect x="549.385" y="223.361" style="fill:#F0F2F7;" width="2.953" height="30.432"/>
		<path style="fill:#F0F2F7;" d="M552.67,254.123h-3.616v-31.091h3.616V254.123z M549.715,253.463h2.295v-29.772h-2.295V253.463z"/>
		<path style="fill:#F0F2F7;" d="M558.632,247.048v-10.705h2.956v10.411c0,3.033,1.436,4.72,4.308,4.72
			c3.29,0,5.445-2.108,5.445-5.521v-9.61h2.953v17.45h-2.953l0.083-3.541c-1.14,2.445-3.419,3.92-6.248,3.92
			C561.292,254.172,558.632,251.516,558.632,247.048"/>
		<path style="fill:#F0F2F7;" d="M565.177,254.502c-4.176,0-6.874-2.927-6.874-7.454v-11.035h3.614v10.741
			c0,2.912,1.337,4.391,3.978,4.391c3.155,0,5.115-1.991,5.115-5.194v-9.938h3.614v18.109h-3.622l0.061-2.591
			C569.739,253.411,567.619,254.502,565.177,254.502 M558.963,236.672v10.376c0,4.191,2.381,6.794,6.214,6.794
			c2.676,0,4.844-1.358,5.947-3.728l0.631,0.146l-0.076,3.203h2.286v-16.79h-2.295v9.28c0,3.555-2.267,5.852-5.775,5.852
			c-2.991,0-4.638-1.794-4.638-5.049v-10.083H558.963z"/>
		<path style="fill:#F0F2F7;" d="M595.958,236.343v2.232h-3.42c0.888,0.93,1.393,2.15,1.393,3.584c0,3.584-2.743,6.238-6.797,6.238
			c-1.35,0-2.575-0.251-3.588-0.799c-0.93,0.251-1.435,0.927-1.435,1.768c0,1.14,0.801,1.688,2.279,1.771l4.477,0.337
			c4.981,0.38,7.344,2.193,7.344,5.522c0,3.794-3.505,6.195-9.289,6.195c-5.613,0-8.948-2.233-8.948-5.733
			c0-2.401,1.689-3.792,4.137-4.552c-1.647-0.547-2.448-1.728-2.448-3.245c0-1.476,0.928-2.614,2.406-3.204
			c-1.226-1.054-1.901-2.571-1.901-4.299c0-3.625,2.915-6.195,6.966-6.195c0.886,0,1.733,0.127,2.492,0.38H595.958z
			 M580.885,257.207c0,2.318,1.984,3.626,6.036,3.626c3.928,0,6.292-1.349,6.292-3.709c0-1.939-1.139-2.782-4.855-3.035
			l-4.391-0.295C582.11,254.341,580.885,255.436,580.885,257.207 M591.27,242.159c0-2.36-1.562-3.92-4.178-3.92
			c-2.661,0-4.223,1.559-4.223,3.92c0,2.36,1.562,3.962,4.223,3.962C589.708,246.121,591.27,244.519,591.27,242.159"/>
		<path style="fill:#F0F2F7;" d="M586.923,263.522c-5.724,0-9.281-2.324-9.281-6.063c0-2.104,1.2-3.644,3.568-4.582
			c-1.217-0.664-1.876-1.781-1.876-3.214c0-1.417,0.777-2.597,2.152-3.301c-1.067-1.093-1.648-2.566-1.648-4.203
			c0-3.781,3.07-6.525,7.296-6.525c0.911,0,1.768,0.128,2.544,0.38h6.61v2.892h-3.047c0.67,0.923,1.02,2.035,1.02,3.254
			c0,3.806-2.998,6.568-7.128,6.568c-1.397,0-2.614-0.261-3.622-0.775c-0.685,0.228-1.073,0.737-1.073,1.415
			c0,0.572,0.206,1.343,1.971,1.442l4.48,0.339c5.149,0.391,7.651,2.305,7.651,5.849
			C596.54,261.021,592.854,263.522,586.923,263.522 M587.133,236.292c-3.906,0-6.636,2.413-6.636,5.867
			c0,1.62,0.635,3.06,1.787,4.049l0.41,0.355l-0.504,0.2c-1.397,0.559-2.198,1.615-2.198,2.899c0,1.435,0.768,2.449,2.222,2.933
			l0.972,0.324l-0.978,0.302c-2.628,0.815-3.905,2.2-3.905,4.238c0,3.333,3.304,5.404,8.62,5.404c5.525,0,8.957-2.248,8.957-5.867
			c0-3.178-2.238-4.828-7.041-5.194l-4.473-0.339c-2.136-0.12-2.588-1.206-2.588-2.098c0-1.02,0.629-1.8,1.68-2.086l0.127-0.035
			l0.115,0.063c0.934,0.505,2.089,0.761,3.432,0.761c3.809,0,6.468-2.431,6.468-5.909c0-1.304-0.451-2.464-1.302-3.356l-0.531-0.556
			h3.86v-1.575l-6.108-0.016C588.796,236.415,587.993,236.292,587.133,236.292 M586.923,261.161c-5.263,0-6.369-2.15-6.369-3.955
			c0-1.798,1.149-3.089,3.32-3.73l0.057-0.016l4.451,0.299c3.762,0.256,5.162,1.168,5.162,3.363
			C593.543,259.652,591.068,261.161,586.923,261.161 M584.005,254.125c-1.852,0.562-2.79,1.599-2.79,3.082
			c0,2.724,3.105,3.296,5.708,3.296c3.788,0,5.96-1.232,5.96-3.379c0-1.555-0.723-2.447-4.547-2.706L584.005,254.125z
			 M587.092,246.451c-2.766,0-4.553-1.685-4.553-4.292c0-2.581,1.787-4.248,4.553-4.248c2.739,0,4.509,1.667,4.509,4.248
			C591.601,244.766,589.831,246.451,587.092,246.451 M587.092,238.569c-2.438,0-3.893,1.342-3.893,3.59
			c0,2.241,1.492,3.632,3.893,3.632c2.375,0,3.849-1.391,3.849-3.632C590.941,239.945,589.467,238.569,587.092,238.569"/>
		<path style="fill:#F0F2F7;" d="M505.378,277.648c0,1.051-0.387,1.883-1.161,2.498c-0.772,0.615-1.801,0.921-3.083,0.921
			c-1.542,0-2.722-0.169-3.546-0.508v-0.877c0.908,0.384,2.067,0.577,3.476,0.577c1.036,0,1.855-0.238,2.463-0.711
			c0.607-0.473,0.909-1.095,0.909-1.864c0-0.477-0.099-0.872-0.301-1.185c-0.201-0.312-0.53-0.599-0.982-0.857
			c-0.455-0.258-1.123-0.536-2.003-0.835c-1.288-0.442-2.178-0.92-2.67-1.434c-0.492-0.514-0.737-1.199-0.737-2.054
			c0-0.941,0.369-1.709,1.108-2.305c0.739-0.594,1.69-0.89,2.851-0.89c1.185,0,2.299,0.223,3.34,0.672l-0.32,0.758
			c-1.047-0.436-2.048-0.654-3.003-0.654c-0.933,0-1.673,0.215-2.225,0.645c-0.552,0.431-0.829,1.017-0.829,1.758
			c0,0.466,0.085,0.847,0.255,1.146c0.168,0.298,0.447,0.566,0.831,0.804c0.387,0.238,1.048,0.524,1.985,0.857
			c0.984,0.34,1.723,0.669,2.217,0.987c0.493,0.318,0.854,0.68,1.083,1.085C505.264,276.584,505.378,277.074,505.378,277.648"/>
		<polygon style="fill:#F0F2F7;" points="515.571,280.895 514.682,280.895 514.682,269.129 510.584,269.129 510.584,268.303 
			519.669,268.303 519.669,269.129 515.57,269.129 		"/>
		<path style="fill:#F0F2F7;" d="M535.053,268.303v8.149c0,1.447-0.419,2.578-1.258,3.393c-0.839,0.815-2.01,1.223-3.512,1.223
			c-1.461,0-2.6-0.41-3.419-1.228c-0.82-0.817-1.231-1.959-1.231-3.423v-8.114h0.888v8.149c0.001,1.21,0.339,2.153,1.012,2.829
			c0.673,0.674,1.623,1.012,2.855,1.012c1.201,0,2.133-0.331,2.794-0.996c0.661-0.663,0.991-1.582,0.991-2.76v-8.233H535.053z"/>
		<path style="fill:#F0F2F7;" d="M552.302,274.48c0,2.112-0.556,3.711-1.664,4.792c-1.111,1.082-2.74,1.623-4.892,1.623h-3.019
			v-12.592h3.407c2.013,0,3.543,0.525,4.592,1.577C551.776,270.931,552.302,272.464,552.302,274.48 M551.344,274.513
			c0-1.803-0.458-3.159-1.375-4.07c-0.918-0.909-2.266-1.365-4.042-1.365h-2.321v11.042h2.088
			C549.461,280.12,551.344,278.252,551.344,274.513"/>
		<rect x="559.44" y="268.303" style="fill:#F0F2F7;" width="0.88" height="12.592"/>
		<path style="fill:#F0F2F7;" d="M578.733,274.582c0,1.998-0.499,3.578-1.501,4.741c-1.001,1.162-2.381,1.743-4.141,1.743
			c-1.753,0-3.13-0.581-4.131-1.743c-1-1.163-1.501-2.749-1.501-4.759c0-2.004,0.504-3.581,1.514-4.733
			c1.009-1.15,2.388-1.727,4.136-1.727c1.76,0,3.137,0.578,4.133,1.736C578.237,270.999,578.733,272.578,578.733,274.582
			 M568.416,274.582c0.001,1.803,0.403,3.196,1.209,4.181c0.806,0.985,1.961,1.477,3.467,1.477c1.518,0,2.679-0.488,3.482-1.464
			c0.803-0.975,1.203-2.374,1.203-4.194c0-1.814-0.4-3.206-1.203-4.172c-0.803-0.968-1.958-1.452-3.464-1.452
			c-1.501,0-2.658,0.488-3.471,1.464C568.823,271.398,568.416,272.785,568.416,274.582"/>
	</g>
	<path style="fill:#F0F2F7;" d="M706.819,1223.068H373.181c-18.877,0-34.181-15.303-34.181-34.181v-0.792
		c0-18.877,15.303-34.181,34.181-34.181h333.639c18.877,0,34.181,15.303,34.181,34.181v0.792
		C741,1207.765,725.697,1223.068,706.819,1223.068z"/>
	<g>
		<path style="fill:#005AF9;" d="M388.428,1174.134l-9.427,27.73h-6.411l-9.408-27.73h5.937l5.217,16.502
			c0.088,0.278,0.233,0.8,0.436,1.564c0.202,0.766,0.408,1.574,0.616,2.428c0.209,0.854,0.352,1.559,0.428,2.115
			c0.075-0.557,0.211-1.259,0.407-2.105c0.196-0.848,0.392-1.653,0.588-2.419c0.196-0.765,0.338-1.292,0.427-1.583l5.254-16.502
			H388.428z"/>
		<path style="fill:#005AF9;" d="M394.365,1172.351c0.86,0,1.6,0.199,2.22,0.598c0.619,0.397,0.929,1.141,0.929,2.229
			c0,1.075-0.31,1.817-0.929,2.229c-0.62,0.411-1.359,0.616-2.22,0.616c-0.872,0-1.615-0.205-2.229-0.616s-0.92-1.153-0.92-2.229
			c0-1.088,0.307-1.831,0.92-2.229C392.75,1172.55,393.493,1172.351,394.365,1172.351z M397.248,1180.659v21.206h-5.785v-21.206
			H397.248z"/>
		<path style="fill:#005AF9;" d="M418.113,1195.568c0,1.441-0.339,2.658-1.015,3.65c-0.677,0.993-1.686,1.745-3.025,2.258
			c-1.341,0.512-3.01,0.768-5.008,0.768c-1.479,0-2.747-0.095-3.803-0.284c-1.057-0.189-2.122-0.506-3.196-0.948v-4.78
			c1.15,0.519,2.387,0.945,3.708,1.28c1.321,0.336,2.481,0.503,3.48,0.503c1.126,0,1.932-0.167,2.419-0.503
			c0.486-0.335,0.73-0.774,0.73-1.317c0-0.354-0.099-0.674-0.294-0.958c-0.196-0.285-0.617-0.607-1.262-0.968
			s-1.657-0.831-3.035-1.413c-1.327-0.557-2.418-1.119-3.271-1.688c-0.854-0.568-1.486-1.242-1.897-2.02
			c-0.411-0.778-0.616-1.768-0.616-2.969c0-1.96,0.762-3.436,2.286-4.429c1.523-0.993,3.562-1.489,6.117-1.489
			c1.314,0,2.569,0.133,3.765,0.398s2.425,0.689,3.689,1.271l-1.745,4.173c-1.05-0.455-2.039-0.827-2.969-1.119
			c-0.93-0.29-1.875-0.436-2.836-0.436c-0.847,0-1.485,0.113-1.915,0.341c-0.431,0.228-0.646,0.576-0.646,1.044
			c0,0.341,0.111,0.645,0.332,0.91c0.222,0.266,0.651,0.56,1.29,0.882s1.577,0.737,2.816,1.242c1.201,0.493,2.245,1.009,3.13,1.546
			c0.885,0.538,1.568,1.202,2.049,1.992S418.113,1194.316,418.113,1195.568z"/>
		<path style="fill:#005AF9;" d="M425.529,1172.351c0.86,0,1.6,0.199,2.22,0.598c0.619,0.397,0.929,1.141,0.929,2.229
			c0,1.075-0.31,1.817-0.929,2.229c-0.62,0.411-1.359,0.616-2.22,0.616c-0.872,0-1.615-0.205-2.229-0.616s-0.92-1.153-0.92-2.229
			c0-1.088,0.307-1.831,0.92-2.229C423.914,1172.55,424.657,1172.351,425.529,1172.351z M428.412,1180.659v21.206h-5.785v-21.206
			H428.412z"/>
		<path style="fill:#005AF9;" d="M443.416,1197.635c0.633,0,1.249-0.063,1.85-0.19c0.601-0.126,1.198-0.284,1.792-0.474v4.306
			c-0.619,0.278-1.388,0.509-2.304,0.692c-0.917,0.183-1.92,0.274-3.007,0.274c-1.265,0-2.399-0.205-3.404-0.616
			c-1.006-0.41-1.796-1.125-2.371-2.144c-0.576-1.018-0.863-2.437-0.863-4.258v-10.224h-2.77v-2.447l3.187-1.935l1.669-4.477h3.699
			v4.515h5.937v4.344h-5.937v10.224c0,0.81,0.23,1.413,0.692,1.812C442.046,1197.436,442.657,1197.635,443.416,1197.635z"/>
		<path style="fill:#005AF9;" d="M450.529,1183.485c0-1.188,0.325-2.023,0.977-2.504s1.438-0.721,2.361-0.721
			c0.897,0,1.672,0.24,2.324,0.721c0.65,0.48,0.977,1.315,0.977,2.504c0,1.15-0.326,1.976-0.977,2.476
			c-0.652,0.499-1.427,0.749-2.324,0.749c-0.923,0-1.71-0.25-2.361-0.749C450.854,1185.46,450.529,1184.635,450.529,1183.485z
			 M450.529,1199.153c0-1.188,0.325-2.023,0.977-2.504s1.438-0.721,2.361-0.721c0.897,0,1.672,0.24,2.324,0.721
			c0.65,0.48,0.977,1.315,0.977,2.504c0,1.138-0.326,1.96-0.977,2.466c-0.652,0.505-1.427,0.758-2.324,0.758
			c-0.923,0-1.71-0.253-2.361-0.758C450.854,1201.113,450.529,1200.29,450.529,1199.153z"/>
		<path style="fill:#005AF9;" d="M489.962,1181.076v20.789h-2.579l-0.456-2.921h-0.17c-0.431,0.721-0.986,1.327-1.67,1.82
			c-0.683,0.493-1.45,0.863-2.304,1.11c-0.854,0.246-1.762,0.369-2.723,0.369c-1.644,0-3.022-0.265-4.135-0.796
			c-1.113-0.531-1.95-1.354-2.513-2.466c-0.563-1.113-0.845-2.542-0.845-4.287v-13.619h3.187v13.392
			c0,1.732,0.392,3.025,1.177,3.879c0.783,0.854,1.979,1.28,3.584,1.28c1.543,0,2.772-0.291,3.689-0.872
			c0.917-0.582,1.577-1.438,1.982-2.57c0.404-1.132,0.606-2.52,0.606-4.164v-10.944H489.962z"/>
		<path style="fill:#005AF9;" d="M506.464,1180.697c2.466,0,4.331,0.604,5.596,1.812c1.265,1.207,1.896,3.146,1.896,5.813v13.543
			h-3.11v-13.334c0-1.732-0.396-3.028-1.186-3.889s-2.001-1.29-3.632-1.29c-2.302,0-3.921,0.651-4.856,1.954
			c-0.936,1.302-1.403,3.192-1.403,5.671v10.888h-3.148v-20.789h2.541l0.475,2.997h0.171c0.442-0.733,1.005-1.35,1.688-1.85
			c0.683-0.499,1.447-0.878,2.295-1.138C504.637,1180.827,505.529,1180.697,506.464,1180.697z"/>
		<path style="fill:#005AF9;" d="M530.212,1180.697c2.592,0,4.66,0.892,6.202,2.675c1.543,1.782,2.314,4.464,2.314,8.042
			c0,2.364-0.354,4.35-1.062,5.956c-0.708,1.605-1.704,2.819-2.987,3.642s-2.798,1.232-4.543,1.232c-1.1,0-2.067-0.146-2.901-0.436
			c-0.835-0.291-1.55-0.683-2.144-1.176c-0.595-0.493-1.088-1.031-1.479-1.612h-0.228c0.038,0.493,0.085,1.087,0.143,1.782
			c0.057,0.696,0.085,1.303,0.085,1.821v8.535h-3.168v-30.083h2.599l0.418,3.073h0.151c0.404-0.632,0.897-1.211,1.479-1.735
			c0.581-0.525,1.293-0.942,2.134-1.252S529.062,1180.697,530.212,1180.697z M529.663,1183.352c-1.441,0-2.602,0.278-3.48,0.835
			s-1.521,1.388-1.926,2.494c-0.404,1.106-0.619,2.494-0.645,4.163v0.607c0,1.758,0.192,3.243,0.578,4.457s1.024,2.138,1.916,2.77
			c0.892,0.633,2.09,0.948,3.595,0.948c1.289,0,2.364-0.348,3.225-1.043c0.859-0.695,1.501-1.666,1.925-2.912
			c0.424-1.245,0.636-2.677,0.636-4.296c0-2.453-0.478-4.403-1.433-5.852C533.098,1184.077,531.635,1183.352,529.663,1183.352z"/>
		<path style="fill:#005AF9;" d="M547.378,1201.865h-3.168v-29.514h3.168V1201.865z"/>
		<path style="fill:#005AF9;" d="M571.183,1181.076v20.789h-2.58l-0.455-2.921h-0.171c-0.43,0.721-0.986,1.327-1.669,1.82
			s-1.451,0.863-2.305,1.11c-0.854,0.246-1.761,0.369-2.722,0.369c-1.644,0-3.022-0.265-4.135-0.796
			c-1.113-0.531-1.951-1.354-2.514-2.466c-0.562-1.113-0.844-2.542-0.844-4.287v-13.619h3.187v13.392
			c0,1.732,0.392,3.025,1.176,3.879s1.979,1.28,3.585,1.28c1.543,0,2.772-0.291,3.689-0.872c0.917-0.582,1.577-1.438,1.982-2.57
			c0.404-1.132,0.606-2.52,0.606-4.164v-10.944H571.183z"/>
		<path style="fill:#005AF9;" d="M583.644,1211.197c-2.73,0-4.836-0.509-6.315-1.526c-1.479-1.019-2.22-2.444-2.22-4.277
			c0-1.303,0.414-2.416,1.242-3.339s1.976-1.536,3.443-1.84c-0.544-0.253-1.009-0.632-1.395-1.138s-0.578-1.088-0.578-1.745
			c0-0.759,0.211-1.426,0.635-2.001s1.072-1.129,1.944-1.66c-1.088-0.442-1.97-1.191-2.646-2.247
			c-0.677-1.056-1.016-2.286-1.016-3.689c0-1.492,0.311-2.767,0.93-3.822c0.62-1.056,1.518-1.861,2.693-2.418
			c1.177-0.557,2.599-0.835,4.268-0.835c0.367,0,0.737,0.016,1.11,0.048c0.373,0.031,0.73,0.075,1.071,0.133
			c0.342,0.057,0.639,0.123,0.892,0.198h7.132v2.03l-3.831,0.474c0.379,0.493,0.695,1.088,0.948,1.783s0.379,1.467,0.379,2.314
			c0,2.074-0.701,3.721-2.105,4.94c-1.403,1.221-3.332,1.831-5.785,1.831c-0.581,0-1.176-0.051-1.783-0.152
			c-0.619,0.342-1.09,0.721-1.413,1.139c-0.322,0.417-0.483,0.897-0.483,1.441c0,0.404,0.123,0.728,0.37,0.967
			c0.246,0.241,0.604,0.415,1.071,0.522s1.031,0.161,1.688,0.161h3.661c2.263,0,3.999,0.474,5.206,1.422
			c1.208,0.949,1.812,2.333,1.812,4.154c0,2.302-0.936,4.065-2.807,5.292C589.891,1210.583,587.185,1211.197,583.644,1211.197z
			 M583.74,1208.731c1.719,0,3.145-0.174,4.277-0.521c1.131-0.348,1.979-0.848,2.541-1.498c0.562-0.651,0.845-1.426,0.845-2.324
			c0-0.834-0.19-1.464-0.569-1.887c-0.38-0.424-0.937-0.708-1.669-0.854c-0.734-0.146-1.632-0.219-2.693-0.219h-3.604
			c-0.936,0-1.751,0.146-2.446,0.437c-0.696,0.291-1.23,0.721-1.604,1.29c-0.373,0.568-0.56,1.276-0.56,2.124
			c0,1.125,0.475,1.982,1.423,2.57S581.982,1208.731,583.74,1208.731z M584.555,1192.116c1.505,0,2.637-0.38,3.396-1.139
			c0.758-0.759,1.138-1.865,1.138-3.319c0-1.556-0.386-2.722-1.157-3.499c-0.771-0.778-1.909-1.167-3.414-1.167
			c-1.441,0-2.551,0.401-3.329,1.204c-0.777,0.804-1.166,1.977-1.166,3.519c0,1.417,0.392,2.504,1.176,3.263
			S583.101,1192.116,584.555,1192.116z"/>
		<path style="fill:#005AF9;" d="M598.458,1199.892c0-0.885,0.215-1.515,0.646-1.888c0.43-0.372,0.954-0.56,1.574-0.56
			c0.645,0,1.188,0.188,1.631,0.56c0.442,0.373,0.664,1.003,0.664,1.888c0,0.872-0.222,1.508-0.664,1.906s-0.986,0.598-1.631,0.598
			c-0.62,0-1.145-0.199-1.574-0.598C598.672,1201.4,598.458,1200.764,598.458,1199.892z"/>
		<path style="fill:#005AF9;" d="M622.585,1196.174c0,1.328-0.332,2.444-0.996,3.348c-0.664,0.904-1.612,1.584-2.845,2.039
			c-1.233,0.455-2.703,0.683-4.41,0.683c-1.454,0-2.713-0.113-3.774-0.341c-1.062-0.228-1.992-0.55-2.788-0.968v-2.901
			c0.847,0.417,1.858,0.796,3.034,1.138s2.378,0.512,3.604,0.512c1.795,0,3.098-0.29,3.907-0.872
			c0.809-0.582,1.214-1.372,1.214-2.371c0-0.569-0.161-1.071-0.483-1.508c-0.323-0.437-0.863-0.86-1.622-1.271
			c-0.759-0.411-1.809-0.863-3.148-1.356c-1.328-0.506-2.476-1.009-3.443-1.508c-0.967-0.5-1.713-1.11-2.238-1.831
			c-0.524-0.721-0.787-1.656-0.787-2.807c0-1.758,0.712-3.107,2.135-4.05c1.422-0.942,3.29-1.413,5.604-1.413
			c1.252,0,2.425,0.123,3.519,0.37c1.094,0.246,2.115,0.578,3.063,0.995l-1.062,2.523c-0.86-0.367-1.776-0.677-2.75-0.93
			s-1.967-0.38-2.979-0.38c-1.454,0-2.569,0.241-3.348,0.721c-0.777,0.481-1.166,1.139-1.166,1.973c0,0.646,0.18,1.177,0.54,1.594
			s0.939,0.81,1.735,1.176c0.797,0.367,1.847,0.797,3.149,1.29c1.302,0.48,2.428,0.977,3.376,1.489
			c0.948,0.512,1.679,1.132,2.19,1.858C622.33,1194.104,622.585,1195.036,622.585,1196.174z"/>
		<path style="fill:#005AF9;" d="M634.365,1199.664c0.519,0,1.049-0.044,1.593-0.133c0.544-0.088,0.986-0.196,1.328-0.322v2.446
			c-0.367,0.165-0.876,0.304-1.527,0.418c-0.651,0.113-1.286,0.17-1.906,0.17c-1.1,0-2.099-0.192-2.996-0.578
			c-0.898-0.386-1.616-1.04-2.153-1.963c-0.538-0.923-0.806-2.2-0.806-3.832v-12.329h-2.959v-1.536l2.978-1.232l1.252-4.515h1.896
			v4.817h6.089v2.466h-6.089v12.234c0,1.303,0.301,2.276,0.901,2.921C632.566,1199.342,633.366,1199.664,634.365,1199.664z"/>
		<path style="fill:#005AF9;" d="M658.663,1181.076v20.789h-2.58l-0.455-2.921h-0.171c-0.43,0.721-0.986,1.327-1.669,1.82
			s-1.451,0.863-2.305,1.11c-0.854,0.246-1.761,0.369-2.722,0.369c-1.644,0-3.022-0.265-4.135-0.796
			c-1.113-0.531-1.951-1.354-2.514-2.466c-0.562-1.113-0.844-2.542-0.844-4.287v-13.619h3.187v13.392
			c0,1.732,0.392,3.025,1.176,3.879s1.979,1.28,3.585,1.28c1.543,0,2.772-0.291,3.689-0.872c0.917-0.582,1.577-1.438,1.982-2.57
			c0.404-1.132,0.606-2.52,0.606-4.164v-10.944H658.663z"/>
		<path style="fill:#005AF9;" d="M672.717,1202.244c-2.63,0-4.714-0.897-6.25-2.693c-1.536-1.795-2.305-4.463-2.305-8.004
			c0-3.578,0.784-6.281,2.353-8.108c1.567-1.827,3.654-2.741,6.259-2.741c1.101,0,2.062,0.146,2.884,0.437
			c0.821,0.291,1.529,0.68,2.124,1.166c0.594,0.487,1.094,1.04,1.498,1.66h0.228c-0.05-0.393-0.101-0.93-0.151-1.612
			c-0.051-0.684-0.076-1.239-0.076-1.67v-8.326h3.149v29.514h-2.542l-0.475-2.959h-0.133c-0.392,0.62-0.888,1.183-1.488,1.688
			s-1.315,0.907-2.144,1.204S673.842,1202.244,672.717,1202.244z M673.21,1199.626c2.226,0,3.8-0.632,4.723-1.896
			s1.385-3.143,1.385-5.634v-0.569c0-2.643-0.439-4.672-1.318-6.088s-2.475-2.125-4.789-2.125c-1.935,0-3.383,0.743-4.344,2.229
			c-0.961,1.486-1.441,3.513-1.441,6.08c0,2.554,0.478,4.526,1.432,5.918C669.812,1198.931,671.263,1199.626,673.21,1199.626z"/>
		<path style="fill:#005AF9;" d="M690.699,1173.299c0.519,0,0.964,0.168,1.337,0.503s0.56,0.856,0.56,1.564
			c0,0.695-0.187,1.214-0.56,1.556c-0.373,0.341-0.818,0.512-1.337,0.512c-0.544,0-0.996-0.171-1.356-0.512
			c-0.36-0.342-0.54-0.86-0.54-1.556c0-0.708,0.18-1.229,0.54-1.564S690.155,1173.299,690.699,1173.299z M692.235,1181.076v20.789
			h-3.148v-20.789H692.235z"/>
		<path style="fill:#005AF9;" d="M716.818,1191.432c0,1.707-0.222,3.231-0.664,4.571c-0.442,1.341-1.081,2.473-1.916,3.396
			c-0.834,0.923-1.843,1.628-3.025,2.115c-1.183,0.486-2.52,0.729-4.012,0.729c-1.391,0-2.665-0.243-3.821-0.729
			c-1.157-0.487-2.156-1.192-2.997-2.115c-0.842-0.923-1.492-2.055-1.954-3.396c-0.462-1.34-0.692-2.864-0.692-4.571
			c0-2.275,0.386-4.214,1.157-5.813s1.875-2.819,3.31-3.66c1.436-0.841,3.146-1.262,5.131-1.262c1.897,0,3.557,0.424,4.979,1.271
			c1.423,0.848,2.528,2.071,3.319,3.671C716.422,1187.238,716.818,1189.169,716.818,1191.432z M700.999,1191.432
			c0,1.67,0.221,3.117,0.664,4.344c0.442,1.227,1.125,2.175,2.048,2.846c0.924,0.67,2.112,1.005,3.566,1.005
			c1.441,0,2.627-0.335,3.557-1.005c0.93-0.671,1.615-1.619,2.058-2.846s0.664-2.674,0.664-4.344c0-1.656-0.222-3.088-0.664-4.296
			c-0.442-1.207-1.125-2.14-2.048-2.798c-0.924-0.657-2.118-0.986-3.585-0.986c-2.163,0-3.746,0.715-4.752,2.144
			C701.501,1186.924,700.999,1188.904,700.999,1191.432z"/>
	</g>
</g>
<g>
</g>
<g>
</g>
<g>
</g>
<g>
</g>
<g>
</g>
<g>
</g>
<g>
</g>
<g>
</g>
<g>
</g>
<g>
</g>
<g>
</g>
</svg>
